<?xml version="1.0" standalone="no"?>
<!DOCTYPE svg PUBLIC "-//W3C//DTD SVG 20010904//EN"
 "http://www.w3.org/TR/2001/REC-SVG-20010904/DTD/svg10.dtd">
<svg version="1.0" xmlns="http://www.w3.org/2000/svg"
 width="700.000000pt" height="700.000000pt" viewBox="0 0 700.000000 700.000000"
 preserveAspectRatio="xMidYMid meet">
<metadata>
Created by potrace 1.14, written by Peter Selinger 2001-2017
</metadata>
<g transform="translate(0.000000,700.000000) scale(0.100000,-0.100000)"
fill="#000000" stroke="none">
<path d="M3384 5441 c-172 -28 -336 -130 -409 -256 -37 -62 -58 -158 -50 -224
7 -58 44 -152 72 -183 9 -10 14 -19 12 -21 -2 -1 -44 -22 -92 -46 -193 -97
-391 -230 -515 -346 -99 -92 -182 -205 -242 -329 -91 -190 -99 -282 -46 -536
62 -301 170 -578 284 -733 98 -135 296 -244 582 -322 33 -9 22 0 -72 65 -94
64 -198 171 -258 266 -45 71 -45 71 -104 82 -99 19 -161 84 -173 181 -8 66 29
146 85 185 46 31 52 32 52 6 0 -74 85 -198 177 -259 109 -72 280 -94 415 -52
145 46 267 177 285 306 l6 45 136 0 137 0 12 -59 c22 -104 109 -209 222 -266
126 -64 329 -59 450 12 99 58 179 159 195 246 4 20 11 37 16 37 17 0 77 -61
93 -95 24 -51 22 -125 -4 -181 -26 -53 -96 -104 -144 -104 -43 0 -48 -5 -105
-92 -113 -173 -291 -312 -497 -387 -46 -17 -79 -35 -79 -42 0 -19 38 -14 162
22 209 60 360 139 475 247 164 155 396 583 470 867 24 93 8 307 -32 437 -51
166 -276 410 -549 597 -86 58 -275 173 -341 206 -19 10 -36 19 -38 20 -2 1 11
23 28 49 80 118 90 245 32 371 -57 121 -177 216 -336 264 -77 24 -232 34 -312
22z m-48 -1454 c93 -56 262 -158 376 -227 l208 -125 -93 -6 c-57 -3 -104 -12
-124 -23 l-33 -17 0 -144 0 -145 -140 0 -140 0 0 145 0 144 -32 18 c-29 16
-70 19 -322 23 l-288 5 201 228 c111 125 206 227 210 227 5 0 84 -46 177 -103z
m-36 -423 l32 -7 -4 -181 c-3 -205 -7 -216 -87 -299 -79 -83 -166 -118 -291
-118 -235 0 -390 149 -390 373 0 70 20 113 85 186 l47 52 288 0 c158 0 302 -3
320 -6z m830 -57 c58 -35 104 -67 103 -73 -4 -23 -33 -27 -103 -14 -125 24
-225 -12 -290 -102 -49 -67 -38 -71 59 -21 81 42 94 46 158 45 50 0 85 -6 119
-21 53 -24 50 -25 86 44 11 22 22 42 24 43 1 2 50 -25 108 -59 l106 -64 -7
-40 c-15 -103 -92 -197 -201 -248 -54 -25 -83 -32 -153 -35 -172 -8 -311 64
-381 198 -21 41 -23 59 -26 222 -3 163 -2 177 15 181 10 3 77 5 148 6 l130 1
105 -63z"/>
<path d="M2730 3523 c0 -20 63 -161 83 -186 l22 -29 62 21 c102 34 180 24 287
-39 36 -21 66 -34 66 -29 0 23 -32 69 -74 106 -70 62 -159 79 -265 52 -47 -12
-53 -11 -79 7 -15 12 -40 39 -57 62 -28 39 -45 51 -45 35z"/>
</g>
</svg>
