<svg xmlns="http://www.w3.org/2000/svg" xmlns:xlink="http://www.w3.org/1999/xlink" width="500" zoomAndPan="magnify" viewBox="0 0 375 374.999991" height="500" preserveAspectRatio="xMidYMid meet" version="1.0"><defs><clipPath id="f0ddb8eca6"><path d="M 13 63.21875 L 362 63.21875 L 362 297 L 13 297 Z M 13 63.21875 " clip-rule="nonzero"/></clipPath><clipPath id="51db456e4b"><path d="M 255 275 L 306 275 L 306 311.46875 L 255 311.46875 Z M 255 275 " clip-rule="nonzero"/></clipPath></defs><rect x="-37.5" width="450" fill="#ffffff" y="-37.499999" height="449.999989" fill-opacity="1"/><rect x="-37.5" width="450" fill="#ffffff" y="-37.499999" height="449.999989" fill-opacity="1"/><rect x="-37.5" width="450" fill="#ffffff" y="-37.499999" height="449.999989" fill-opacity="1"/><g clip-path="url(#f0ddb8eca6)"><path fill="#b6b2b9" d="M 361.691406 291.335938 C 361.691406 294.160156 359.390625 296.449219 356.574219 296.449219 L 18.265625 296.449219 C 15.445312 296.449219 13.152344 294.160156 13.152344 291.335938 L 13.152344 68.269531 C 13.152344 65.441406 15.445312 63.15625 18.265625 63.15625 L 356.578125 63.15625 C 359.390625 63.15625 361.695312 65.441406 361.695312 68.269531 L 361.695312 291.335938 " fill-opacity="1" fill-rule="nonzero"/></g><path fill="#ffffff" d="M 329.847656 126.074219 C 314.230469 126.074219 301.558594 112.625 301.558594 96.03125 C 301.558594 95.152344 301.609375 94.269531 301.6875 93.398438 L 73.152344 93.398438 C 73.21875 94.269531 73.28125 95.152344 73.28125 96.03125 C 73.28125 112.625 60.621094 126.074219 44.992188 126.074219 C 42.691406 126.074219 40.46875 125.753906 38.332031 125.203125 L 38.332031 234.398438 C 40.46875 233.847656 42.691406 233.527344 44.992188 233.527344 C 60.621094 233.527344 73.28125 246.976562 73.28125 263.570312 C 73.28125 264.453125 73.21875 265.332031 73.152344 266.203125 L 301.6875 266.203125 C 301.609375 265.332031 301.558594 264.453125 301.558594 263.570312 C 301.558594 246.976562 314.230469 233.527344 329.847656 233.527344 C 332.148438 233.527344 334.375 233.847656 336.511719 234.398438 L 336.511719 125.203125 C 334.375 125.753906 332.148438 126.074219 329.847656 126.074219 " fill-opacity="1" fill-rule="nonzero"/><path fill="#fcea42" d="M 316.714844 241.277344 C 316.714844 237.007812 322.492188 231.878906 321.242188 228.03125 C 319.949219 224.042969 312.210938 223.289062 309.808594 219.980469 C 307.363281 216.628906 309.015625 209.050781 305.664062 206.621094 C 302.339844 204.203125 295.675781 208.101562 291.671875 206.8125 C 287.835938 205.558594 284.742188 198.4375 280.46875 198.4375 C 276.210938 198.4375 273.117188 205.558594 269.28125 206.8125 C 265.277344 208.101562 258.613281 204.203125 255.289062 206.621094 C 251.9375 209.0625 253.589844 216.628906 251.144531 219.980469 C 248.742188 223.289062 241.003906 224.042969 239.710938 228.03125 C 238.460938 231.878906 244.238281 237.007812 244.238281 241.277344 C 244.238281 245.53125 238.460938 250.660156 239.714844 254.507812 C 241.003906 258.496094 248.742188 259.25 251.144531 262.558594 C 253.589844 265.910156 251.9375 273.488281 255.289062 275.929688 C 258.613281 278.335938 265.277344 274.433594 269.28125 275.726562 C 273.117188 276.980469 276.210938 284.097656 280.46875 284.097656 C 284.742188 284.097656 287.835938 276.980469 291.671875 275.726562 C 295.675781 274.433594 302.351562 278.335938 305.664062 275.917969 C 309.027344 273.488281 307.363281 265.910156 309.808594 262.558594 C 312.210938 259.25 319.949219 258.496094 321.242188 254.507812 C 322.492188 250.660156 316.714844 245.53125 316.714844 241.277344 " fill-opacity="1" fill-rule="nonzero"/><g clip-path="url(#51db456e4b)"><path fill="#52c5ca" d="M 291.671875 275.726562 C 287.835938 276.980469 284.742188 284.097656 280.46875 284.097656 C 276.210938 284.097656 273.117188 276.980469 269.28125 275.726562 C 266.976562 274.984375 263.78125 275.96875 260.851562 276.46875 L 255.046875 307.59375 C 255.046875 309.027344 255.890625 310.316406 257.195312 310.894531 C 257.65625 311.097656 258.152344 311.199219 258.652344 311.199219 C 259.523438 311.199219 260.390625 310.878906 261.082031 310.265625 L 280.46875 299.296875 L 299.882812 310.265625 C 300.933594 311.226562 302.453125 311.46875 303.757812 310.894531 C 305.0625 310.316406 305.90625 309.027344 305.90625 307.59375 L 300.101562 276.46875 C 297.171875 275.957031 293.988281 274.984375 291.671875 275.726562 " fill-opacity="1" fill-rule="nonzero"/></g><path fill="#ffffff" d="M 251.886719 241.277344 C 251.886719 225.488281 264.6875 212.691406 280.46875 212.691406 C 296.265625 212.691406 309.066406 225.488281 309.066406 241.277344 C 309.066406 257.050781 296.265625 269.847656 280.46875 269.847656 C 264.6875 269.847656 251.886719 257.050781 251.886719 241.277344 " fill-opacity="1" fill-rule="nonzero"/><path stroke-linecap="round" transform="matrix(0.127886, 0, 0, -0.127832, -84.466221, 451.57245)" fill="none" stroke-linejoin="round" d="M 1723.495662 2560.19814 L 2528.501322 2560.19814 " stroke="#b6b2b9" stroke-width="40" stroke-opacity="1" stroke-miterlimit="10"/><path stroke-linecap="round" transform="matrix(0.127886, 0, 0, -0.127832, -84.466221, 451.57245)" fill="none" stroke-linejoin="round" d="M 1333.500889 2355.186836 L 2918.496095 2355.186836 " stroke="#b6b2b9" stroke-width="40" stroke-opacity="1" stroke-miterlimit="10"/><path stroke-linecap="round" transform="matrix(0.127886, 0, 0, -0.127832, -84.466221, 451.57245)" fill="none" stroke-linejoin="round" d="M 1333.500889 2182.688875 L 2918.496095 2182.688875 " stroke="#b6b2b9" stroke-width="40" stroke-opacity="1" stroke-miterlimit="10"/><path stroke-linecap="round" transform="matrix(0.127886, 0, 0, -0.127832, -84.466221, 451.57245)" fill="none" stroke-linejoin="round" d="M 1333.500889 2010.190915 L 2918.496095 2010.190915 " stroke="#b6b2b9" stroke-width="40" stroke-opacity="1" stroke-miterlimit="10"/></svg>