<svg xmlns="http://www.w3.org/2000/svg" xmlns:xlink="http://www.w3.org/1999/xlink" width="500" zoomAndPan="magnify" viewBox="0 0 375 374.999991" height="500" preserveAspectRatio="xMidYMid meet" version="1.0"><defs><g/><clipPath id="62b550358c"><path d="M 88 127 L 135 127 L 135 210 L 88 210 Z M 88 127 " clip-rule="nonzero"/></clipPath><clipPath id="b30294f008"><path d="M 88.941406 204.285156 L 99.988281 127.550781 L 134.742188 132.554688 L 123.691406 209.289062 Z M 88.941406 204.285156 " clip-rule="nonzero"/></clipPath><clipPath id="be28e6b7a8"><path d="M 88.941406 204.285156 L 99.988281 127.550781 L 134.742188 132.554688 L 123.691406 209.289062 Z M 88.941406 204.285156 " clip-rule="nonzero"/></clipPath></defs><g fill="#00c7c9" fill-opacity="1"><g transform="translate(-11.208224, 347.207905)"><g><path d="M 245.609375 -301.171875 L 257.90625 -301.171875 L 257.90625 0 L 248.15625 0 L 50.484375 -276.5625 L 50.484375 0 L 38.171875 0 L 38.171875 -301.171875 L 48.359375 -301.171875 L 245.609375 -24.609375 Z M 245.609375 -301.171875 "/></g></g></g><g clip-path="url(#62b550358c)"><g clip-path="url(#b30294f008)"><g clip-path="url(#be28e6b7a8)"><path fill="#ffffff" d="M 88.941406 204.285156 L 99.988281 127.550781 L 134.742188 132.554688 L 123.691406 209.289062 Z M 88.941406 204.285156 " fill-opacity="1" fill-rule="nonzero"/></g></g></g><g fill="#00c7c9" fill-opacity="1"><g transform="translate(70.183608, 347.207905)"><g><path d="M 159.5 2.96875 C 133.195312 2.96875 110.359375 -2.828125 90.984375 -14.421875 C 71.617188 -26.015625 56.632812 -42.835938 46.03125 -64.890625 C 35.425781 -86.953125 30.125 -113.679688 30.125 -145.078125 C 30.125 -176.460938 36.128906 -204.242188 48.140625 -228.421875 C 60.160156 -252.597656 76.5625 -271.472656 97.34375 -285.046875 C 118.132812 -298.628906 141.679688 -305.421875 167.984375 -305.421875 C 193.148438 -305.421875 215.132812 -299.195312 233.9375 -286.75 C 252.738281 -274.3125 267.367188 -256.988281 277.828125 -234.78125 C 288.296875 -212.582031 293.53125 -186.5 293.53125 -156.53125 C 293.53125 -124.007812 287.734375 -95.800781 276.140625 -71.90625 C 264.546875 -48.007812 248.707031 -29.554688 228.625 -16.546875 C 208.550781 -3.535156 185.507812 2.96875 159.5 2.96875 Z M 159.5 -10.1875 C 183.25 -10.1875 204.171875 -15.984375 222.265625 -27.578125 C 240.367188 -39.171875 254.507812 -55.992188 264.6875 -78.046875 C 274.875 -100.109375 279.96875 -126.832031 279.96875 -158.21875 C 279.96875 -185.9375 275.367188 -209.765625 266.171875 -229.703125 C 256.984375 -249.640625 244.046875 -265.050781 227.359375 -275.9375 C 210.679688 -286.820312 191.03125 -292.265625 168.40625 -292.265625 C 144.082031 -292.265625 122.515625 -286.179688 103.703125 -274.015625 C 84.898438 -261.859375 70.195312 -244.679688 59.59375 -222.484375 C 48.988281 -200.285156 43.6875 -174.195312 43.6875 -144.21875 C 43.6875 -100.957031 54.007812 -67.800781 74.65625 -44.75 C 95.300781 -21.707031 123.582031 -10.1875 159.5 -10.1875 Z M 159.5 -10.1875 "/></g></g></g></svg>